<mxfile host="app.diagrams.net" modified="2023-10-05T12:32:17.161Z" agent="Mozilla/5.0 (Windows NT 10.0; Win64; x64) AppleWebKit/537.36 (KHTML, like Gecko) Chrome/116.0.0.0 Safari/537.36 OPR/102.0.0.0" etag="vWDTk_7AbW1cq9EpuV9m" version="21.8.0" type="github">
  <diagram name="Página-1" id="_UqOmjfTo9jEuqb9gW8r">
    <mxGraphModel dx="996" dy="533" grid="1" gridSize="10" guides="1" tooltips="1" connect="1" arrows="1" fold="1" page="1" pageScale="1" pageWidth="1169" pageHeight="827" math="0" shadow="0">
      <root>
        <mxCell id="0" />
        <mxCell id="1" parent="0" />
        <mxCell id="_ilCyXZ5-kIAI7I455lN-69" value="" style="edgeStyle=orthogonalEdgeStyle;rounded=0;orthogonalLoop=1;jettySize=auto;html=1;endArrow=none;endFill=0;" parent="1" source="_ilCyXZ5-kIAI7I455lN-1" target="_ilCyXZ5-kIAI7I455lN-12" edge="1">
          <mxGeometry relative="1" as="geometry" />
        </mxCell>
        <mxCell id="_ilCyXZ5-kIAI7I455lN-75" style="edgeStyle=orthogonalEdgeStyle;rounded=0;orthogonalLoop=1;jettySize=auto;html=1;entryX=0;entryY=0.5;entryDx=0;entryDy=0;endArrow=none;endFill=0;" parent="1" source="_ilCyXZ5-kIAI7I455lN-1" target="_ilCyXZ5-kIAI7I455lN-16" edge="1">
          <mxGeometry relative="1" as="geometry" />
        </mxCell>
        <mxCell id="_ilCyXZ5-kIAI7I455lN-1" value="CURSOS" style="rounded=0;whiteSpace=wrap;html=1;fillColor=#dae8fc;strokeColor=#6c8ebf;" parent="1" vertex="1">
          <mxGeometry x="657.5" y="350" width="120" height="60" as="geometry" />
        </mxCell>
        <mxCell id="_ilCyXZ5-kIAI7I455lN-65" value="" style="edgeStyle=orthogonalEdgeStyle;rounded=0;orthogonalLoop=1;jettySize=auto;html=1;endArrow=none;endFill=0;" parent="1" source="_ilCyXZ5-kIAI7I455lN-2" target="_ilCyXZ5-kIAI7I455lN-15" edge="1">
          <mxGeometry relative="1" as="geometry" />
        </mxCell>
        <mxCell id="_ilCyXZ5-kIAI7I455lN-67" value="" style="edgeStyle=orthogonalEdgeStyle;rounded=0;orthogonalLoop=1;jettySize=auto;html=1;endArrow=none;endFill=0;" parent="1" source="_ilCyXZ5-kIAI7I455lN-2" target="_ilCyXZ5-kIAI7I455lN-17" edge="1">
          <mxGeometry relative="1" as="geometry" />
        </mxCell>
        <mxCell id="_ilCyXZ5-kIAI7I455lN-2" value="ESTUDIANTES" style="rounded=0;whiteSpace=wrap;html=1;fillColor=#dae8fc;strokeColor=#6c8ebf;" parent="1" vertex="1">
          <mxGeometry x="392.5" y="350" width="120" height="60" as="geometry" />
        </mxCell>
        <mxCell id="1Tt6Vb9NGM9969YENuCf-34" style="edgeStyle=orthogonalEdgeStyle;rounded=0;orthogonalLoop=1;jettySize=auto;html=1;entryX=0.5;entryY=1;entryDx=0;entryDy=0;endArrow=none;endFill=0;" parent="1" source="_ilCyXZ5-kIAI7I455lN-3" target="1Tt6Vb9NGM9969YENuCf-1" edge="1">
          <mxGeometry relative="1" as="geometry" />
        </mxCell>
        <mxCell id="1Tt6Vb9NGM9969YENuCf-35" value="" style="edgeStyle=orthogonalEdgeStyle;rounded=0;orthogonalLoop=1;jettySize=auto;html=1;endArrow=none;endFill=0;" parent="1" source="_ilCyXZ5-kIAI7I455lN-3" target="1Tt6Vb9NGM9969YENuCf-6" edge="1">
          <mxGeometry relative="1" as="geometry" />
        </mxCell>
        <mxCell id="_ilCyXZ5-kIAI7I455lN-3" value="PROFESOR" style="rounded=0;whiteSpace=wrap;html=1;fillColor=#dae8fc;strokeColor=#6c8ebf;" parent="1" vertex="1">
          <mxGeometry x="925" y="350" width="120" height="60" as="geometry" />
        </mxCell>
        <mxCell id="_ilCyXZ5-kIAI7I455lN-4" value="MATERIAS" style="rounded=0;whiteSpace=wrap;html=1;fillColor=#dae8fc;strokeColor=#6c8ebf;" parent="1" vertex="1">
          <mxGeometry x="657.5" y="160" width="120" height="60" as="geometry" />
        </mxCell>
        <mxCell id="1Tt6Vb9NGM9969YENuCf-20" style="edgeStyle=orthogonalEdgeStyle;rounded=0;orthogonalLoop=1;jettySize=auto;html=1;entryX=0.5;entryY=0;entryDx=0;entryDy=0;endArrow=none;endFill=0;" parent="1" source="_ilCyXZ5-kIAI7I455lN-5" target="1Tt6Vb9NGM9969YENuCf-14" edge="1">
          <mxGeometry relative="1" as="geometry" />
        </mxCell>
        <mxCell id="_ilCyXZ5-kIAI7I455lN-5" value="AULAS" style="rounded=0;whiteSpace=wrap;html=1;fillColor=#dae8fc;strokeColor=#6c8ebf;" parent="1" vertex="1">
          <mxGeometry x="965" y="610" width="120" height="60" as="geometry" />
        </mxCell>
        <mxCell id="_ilCyXZ5-kIAI7I455lN-6" value="HORARIOS" style="rounded=0;whiteSpace=wrap;html=1;fillColor=#dae8fc;strokeColor=#6c8ebf;" parent="1" vertex="1">
          <mxGeometry x="615" y="580" width="120" height="60" as="geometry" />
        </mxCell>
        <mxCell id="1Tt6Vb9NGM9969YENuCf-21" style="edgeStyle=orthogonalEdgeStyle;rounded=0;orthogonalLoop=1;jettySize=auto;html=1;entryX=0;entryY=0.5;entryDx=0;entryDy=0;endArrow=none;endFill=0;" parent="1" source="_ilCyXZ5-kIAI7I455lN-7" target="_ilCyXZ5-kIAI7I455lN-14" edge="1">
          <mxGeometry relative="1" as="geometry" />
        </mxCell>
        <mxCell id="_ilCyXZ5-kIAI7I455lN-7" value="CALIFICACIONES" style="rounded=0;whiteSpace=wrap;html=1;fillColor=#dae8fc;strokeColor=#6c8ebf;" parent="1" vertex="1">
          <mxGeometry x="382.5" y="160" width="120" height="60" as="geometry" />
        </mxCell>
        <mxCell id="_ilCyXZ5-kIAI7I455lN-60" style="edgeStyle=orthogonalEdgeStyle;rounded=0;orthogonalLoop=1;jettySize=auto;html=1;entryX=0;entryY=0.5;entryDx=0;entryDy=0;endArrow=none;endFill=0;" parent="1" source="_ilCyXZ5-kIAI7I455lN-8" target="_ilCyXZ5-kIAI7I455lN-11" edge="1">
          <mxGeometry relative="1" as="geometry" />
        </mxCell>
        <mxCell id="_ilCyXZ5-kIAI7I455lN-8" value="ASISTENCIAS" style="rounded=0;whiteSpace=wrap;html=1;fillColor=#dae8fc;strokeColor=#6c8ebf;" parent="1" vertex="1">
          <mxGeometry x="135" y="350" width="120" height="60" as="geometry" />
        </mxCell>
        <mxCell id="_ilCyXZ5-kIAI7I455lN-9" value="ACTIVIDADES EXTRACURRICULARES" style="rounded=0;whiteSpace=wrap;html=1;fillColor=#dae8fc;strokeColor=#6c8ebf;" parent="1" vertex="1">
          <mxGeometry x="380" y="580" width="145" height="60" as="geometry" />
        </mxCell>
        <mxCell id="_ilCyXZ5-kIAI7I455lN-74" style="edgeStyle=orthogonalEdgeStyle;rounded=0;orthogonalLoop=1;jettySize=auto;html=1;entryX=0.5;entryY=0;entryDx=0;entryDy=0;endArrow=none;endFill=0;" parent="1" source="_ilCyXZ5-kIAI7I455lN-10" target="_ilCyXZ5-kIAI7I455lN-1" edge="1">
          <mxGeometry relative="1" as="geometry" />
        </mxCell>
        <mxCell id="_ilCyXZ5-kIAI7I455lN-10" value="tiene" style="rhombus;whiteSpace=wrap;html=1;fillColor=#f8cecc;strokeColor=#b85450;" parent="1" vertex="1">
          <mxGeometry x="677.5" y="250" width="80" height="80" as="geometry" />
        </mxCell>
        <mxCell id="_ilCyXZ5-kIAI7I455lN-61" style="edgeStyle=orthogonalEdgeStyle;rounded=0;orthogonalLoop=1;jettySize=auto;html=1;endArrow=none;endFill=0;" parent="1" source="_ilCyXZ5-kIAI7I455lN-11" target="_ilCyXZ5-kIAI7I455lN-2" edge="1">
          <mxGeometry relative="1" as="geometry" />
        </mxCell>
        <mxCell id="_ilCyXZ5-kIAI7I455lN-11" value="tiene" style="rhombus;whiteSpace=wrap;html=1;fillColor=#f8cecc;strokeColor=#b85450;" parent="1" vertex="1">
          <mxGeometry x="282.5" y="340" width="80" height="80" as="geometry" />
        </mxCell>
        <mxCell id="_ilCyXZ5-kIAI7I455lN-12" value="tiene" style="rhombus;whiteSpace=wrap;html=1;fillColor=#f8cecc;strokeColor=#b85450;" parent="1" vertex="1">
          <mxGeometry x="625" y="450" width="80" height="80" as="geometry" />
        </mxCell>
        <mxCell id="_ilCyXZ5-kIAI7I455lN-62" value="" style="edgeStyle=orthogonalEdgeStyle;rounded=0;orthogonalLoop=1;jettySize=auto;html=1;endArrow=none;endFill=0;" parent="1" source="_ilCyXZ5-kIAI7I455lN-13" target="_ilCyXZ5-kIAI7I455lN-7" edge="1">
          <mxGeometry relative="1" as="geometry" />
        </mxCell>
        <mxCell id="_ilCyXZ5-kIAI7I455lN-64" style="edgeStyle=orthogonalEdgeStyle;rounded=0;orthogonalLoop=1;jettySize=auto;html=1;entryX=0.5;entryY=0;entryDx=0;entryDy=0;endArrow=none;endFill=0;" parent="1" source="_ilCyXZ5-kIAI7I455lN-13" target="_ilCyXZ5-kIAI7I455lN-2" edge="1">
          <mxGeometry relative="1" as="geometry" />
        </mxCell>
        <mxCell id="_ilCyXZ5-kIAI7I455lN-13" value="tiene" style="rhombus;whiteSpace=wrap;html=1;fillColor=#f8cecc;strokeColor=#b85450;" parent="1" vertex="1">
          <mxGeometry x="412.5" y="250" width="80" height="80" as="geometry" />
        </mxCell>
        <mxCell id="1Tt6Vb9NGM9969YENuCf-22" style="edgeStyle=orthogonalEdgeStyle;rounded=0;orthogonalLoop=1;jettySize=auto;html=1;endArrow=none;endFill=0;" parent="1" source="_ilCyXZ5-kIAI7I455lN-14" target="_ilCyXZ5-kIAI7I455lN-4" edge="1">
          <mxGeometry relative="1" as="geometry" />
        </mxCell>
        <mxCell id="_ilCyXZ5-kIAI7I455lN-14" value="tiene" style="rhombus;whiteSpace=wrap;html=1;fillColor=#f8cecc;strokeColor=#b85450;" parent="1" vertex="1">
          <mxGeometry x="532.5" y="150" width="80" height="80" as="geometry" />
        </mxCell>
        <mxCell id="_ilCyXZ5-kIAI7I455lN-66" value="" style="edgeStyle=orthogonalEdgeStyle;rounded=0;orthogonalLoop=1;jettySize=auto;html=1;endArrow=none;endFill=0;" parent="1" source="_ilCyXZ5-kIAI7I455lN-15" target="_ilCyXZ5-kIAI7I455lN-9" edge="1">
          <mxGeometry relative="1" as="geometry" />
        </mxCell>
        <mxCell id="_ilCyXZ5-kIAI7I455lN-15" value="tiene" style="rhombus;whiteSpace=wrap;html=1;fillColor=#f8cecc;strokeColor=#b85450;" parent="1" vertex="1">
          <mxGeometry x="412.5" y="430" width="80" height="80" as="geometry" />
        </mxCell>
        <mxCell id="_ilCyXZ5-kIAI7I455lN-76" style="edgeStyle=orthogonalEdgeStyle;rounded=0;orthogonalLoop=1;jettySize=auto;html=1;endArrow=none;endFill=0;" parent="1" source="_ilCyXZ5-kIAI7I455lN-16" target="_ilCyXZ5-kIAI7I455lN-3" edge="1">
          <mxGeometry relative="1" as="geometry" />
        </mxCell>
        <mxCell id="_ilCyXZ5-kIAI7I455lN-16" value="enseña" style="rhombus;whiteSpace=wrap;html=1;fillColor=#f8cecc;strokeColor=#b85450;" parent="1" vertex="1">
          <mxGeometry x="802.5" y="340" width="80" height="80" as="geometry" />
        </mxCell>
        <mxCell id="_ilCyXZ5-kIAI7I455lN-68" value="" style="edgeStyle=orthogonalEdgeStyle;rounded=0;orthogonalLoop=1;jettySize=auto;html=1;endArrow=none;endFill=0;" parent="1" source="_ilCyXZ5-kIAI7I455lN-17" target="_ilCyXZ5-kIAI7I455lN-1" edge="1">
          <mxGeometry relative="1" as="geometry" />
        </mxCell>
        <mxCell id="_ilCyXZ5-kIAI7I455lN-17" value="matriculado" style="rhombus;whiteSpace=wrap;html=1;fillColor=#f8cecc;strokeColor=#b85450;" parent="1" vertex="1">
          <mxGeometry x="552.5" y="340" width="80" height="80" as="geometry" />
        </mxCell>
        <mxCell id="_ilCyXZ5-kIAI7I455lN-71" style="edgeStyle=orthogonalEdgeStyle;rounded=0;orthogonalLoop=1;jettySize=auto;html=1;entryX=0.75;entryY=1;entryDx=0;entryDy=0;endArrow=none;endFill=0;" parent="1" source="_ilCyXZ5-kIAI7I455lN-18" target="_ilCyXZ5-kIAI7I455lN-1" edge="1">
          <mxGeometry relative="1" as="geometry" />
        </mxCell>
        <mxCell id="_ilCyXZ5-kIAI7I455lN-18" value="lleva a cabo en" style="rhombus;whiteSpace=wrap;html=1;fillColor=#f8cecc;strokeColor=#b85450;" parent="1" vertex="1">
          <mxGeometry x="835" y="480" width="110" height="80" as="geometry" />
        </mxCell>
        <mxCell id="_ilCyXZ5-kIAI7I455lN-32" style="edgeStyle=orthogonalEdgeStyle;rounded=0;orthogonalLoop=1;jettySize=auto;html=1;entryX=0;entryY=1;entryDx=0;entryDy=0;endArrow=none;endFill=0;" parent="1" source="_ilCyXZ5-kIAI7I455lN-23" target="_ilCyXZ5-kIAI7I455lN-2" edge="1">
          <mxGeometry relative="1" as="geometry" />
        </mxCell>
        <mxCell id="_ilCyXZ5-kIAI7I455lN-23" value="ID" style="ellipse;whiteSpace=wrap;html=1;align=center;fontStyle=4;fillColor=#fff2cc;strokeColor=#d6b656;" parent="1" vertex="1">
          <mxGeometry x="145" y="450" width="80" height="30" as="geometry" />
        </mxCell>
        <mxCell id="1Tt6Vb9NGM9969YENuCf-23" style="edgeStyle=orthogonalEdgeStyle;rounded=0;orthogonalLoop=1;jettySize=auto;html=1;entryX=0;entryY=1;entryDx=0;entryDy=0;endArrow=none;endFill=0;" parent="1" source="_ilCyXZ5-kIAI7I455lN-25" target="_ilCyXZ5-kIAI7I455lN-2" edge="1">
          <mxGeometry relative="1" as="geometry" />
        </mxCell>
        <mxCell id="_ilCyXZ5-kIAI7I455lN-25" value="Nombre" style="ellipse;whiteSpace=wrap;html=1;align=center;fillColor=#fff2cc;strokeColor=#d6b656;" parent="1" vertex="1">
          <mxGeometry x="145" y="505" width="80" height="30" as="geometry" />
        </mxCell>
        <mxCell id="1Tt6Vb9NGM9969YENuCf-24" style="edgeStyle=orthogonalEdgeStyle;rounded=0;orthogonalLoop=1;jettySize=auto;html=1;endArrow=none;endFill=0;" parent="1" edge="1">
          <mxGeometry relative="1" as="geometry">
            <mxPoint x="392" y="512" as="targetPoint" />
            <mxPoint x="222" y="567" as="sourcePoint" />
            <Array as="points">
              <mxPoint x="393" y="567" />
            </Array>
          </mxGeometry>
        </mxCell>
        <mxCell id="_ilCyXZ5-kIAI7I455lN-27" value="Apellido" style="ellipse;whiteSpace=wrap;html=1;align=center;fillColor=#fff2cc;strokeColor=#d6b656;" parent="1" vertex="1">
          <mxGeometry x="145" y="550" width="80" height="30" as="geometry" />
        </mxCell>
        <mxCell id="1Tt6Vb9NGM9969YENuCf-26" style="edgeStyle=orthogonalEdgeStyle;rounded=0;orthogonalLoop=1;jettySize=auto;html=1;endArrow=none;endFill=0;" parent="1" source="_ilCyXZ5-kIAI7I455lN-28" edge="1">
          <mxGeometry relative="1" as="geometry">
            <mxPoint x="335" y="600" as="targetPoint" />
          </mxGeometry>
        </mxCell>
        <mxCell id="_ilCyXZ5-kIAI7I455lN-28" value="Fecha Nacimiento" style="ellipse;whiteSpace=wrap;html=1;align=center;fillColor=#fff2cc;strokeColor=#d6b656;" parent="1" vertex="1">
          <mxGeometry x="145" y="630" width="80" height="40" as="geometry" />
        </mxCell>
        <mxCell id="1Tt6Vb9NGM9969YENuCf-27" style="edgeStyle=orthogonalEdgeStyle;rounded=0;orthogonalLoop=1;jettySize=auto;html=1;endArrow=none;endFill=0;" parent="1" source="_ilCyXZ5-kIAI7I455lN-29" edge="1">
          <mxGeometry relative="1" as="geometry">
            <mxPoint x="295" y="650" as="targetPoint" />
          </mxGeometry>
        </mxCell>
        <mxCell id="_ilCyXZ5-kIAI7I455lN-29" value="Dirección" style="ellipse;whiteSpace=wrap;html=1;align=center;fillColor=#fff2cc;strokeColor=#d6b656;" parent="1" vertex="1">
          <mxGeometry x="145" y="687" width="80" height="30" as="geometry" />
        </mxCell>
        <mxCell id="1Tt6Vb9NGM9969YENuCf-25" style="edgeStyle=orthogonalEdgeStyle;rounded=0;orthogonalLoop=1;jettySize=auto;html=1;endArrow=none;endFill=0;" parent="1" source="_ilCyXZ5-kIAI7I455lN-30" edge="1">
          <mxGeometry relative="1" as="geometry">
            <mxPoint x="355" y="570" as="targetPoint" />
            <Array as="points">
              <mxPoint x="356" y="605" />
            </Array>
          </mxGeometry>
        </mxCell>
        <mxCell id="_ilCyXZ5-kIAI7I455lN-30" value="Teléfono" style="ellipse;whiteSpace=wrap;html=1;align=center;fillColor=#fff2cc;strokeColor=#d6b656;" parent="1" vertex="1">
          <mxGeometry x="145" y="590" width="80" height="30" as="geometry" />
        </mxCell>
        <mxCell id="_ilCyXZ5-kIAI7I455lN-33" value="ID" style="ellipse;whiteSpace=wrap;html=1;align=center;fontStyle=4;fillColor=#fff2cc;strokeColor=#d6b656;" parent="1" vertex="1">
          <mxGeometry x="25" y="310" width="80" height="30" as="geometry" />
        </mxCell>
        <mxCell id="_ilCyXZ5-kIAI7I455lN-34" value="ID" style="ellipse;whiteSpace=wrap;html=1;align=center;fontStyle=4;fillColor=#fff2cc;strokeColor=#d6b656;" parent="1" vertex="1">
          <mxGeometry x="345" y="80" width="80" height="30" as="geometry" />
        </mxCell>
        <mxCell id="_ilCyXZ5-kIAI7I455lN-42" style="edgeStyle=orthogonalEdgeStyle;rounded=0;orthogonalLoop=1;jettySize=auto;html=1;entryX=0.25;entryY=0;entryDx=0;entryDy=0;endArrow=none;endFill=0;" parent="1" source="_ilCyXZ5-kIAI7I455lN-35" target="_ilCyXZ5-kIAI7I455lN-8" edge="1">
          <mxGeometry relative="1" as="geometry" />
        </mxCell>
        <mxCell id="_ilCyXZ5-kIAI7I455lN-35" value="Fecha" style="ellipse;whiteSpace=wrap;html=1;align=center;fillColor=#fff2cc;strokeColor=#d6b656;" parent="1" vertex="1">
          <mxGeometry x="25" y="260" width="80" height="30" as="geometry" />
        </mxCell>
        <mxCell id="_ilCyXZ5-kIAI7I455lN-39" style="edgeStyle=orthogonalEdgeStyle;rounded=0;orthogonalLoop=1;jettySize=auto;html=1;entryX=0;entryY=0.5;entryDx=0;entryDy=0;endArrow=none;endFill=0;" parent="1" source="_ilCyXZ5-kIAI7I455lN-38" target="_ilCyXZ5-kIAI7I455lN-8" edge="1">
          <mxGeometry relative="1" as="geometry" />
        </mxCell>
        <mxCell id="_ilCyXZ5-kIAI7I455lN-38" value="Estado&lt;br&gt;(presente o no)" style="ellipse;whiteSpace=wrap;html=1;align=center;fillColor=#fff2cc;strokeColor=#d6b656;" parent="1" vertex="1">
          <mxGeometry x="15" y="360" width="90" height="40" as="geometry" />
        </mxCell>
        <mxCell id="_ilCyXZ5-kIAI7I455lN-41" style="edgeStyle=orthogonalEdgeStyle;rounded=0;orthogonalLoop=1;jettySize=auto;html=1;entryX=0.083;entryY=0;entryDx=0;entryDy=0;entryPerimeter=0;endArrow=none;endFill=0;" parent="1" source="_ilCyXZ5-kIAI7I455lN-33" target="_ilCyXZ5-kIAI7I455lN-8" edge="1">
          <mxGeometry relative="1" as="geometry" />
        </mxCell>
        <mxCell id="_ilCyXZ5-kIAI7I455lN-45" style="edgeStyle=orthogonalEdgeStyle;rounded=0;orthogonalLoop=1;jettySize=auto;html=1;entryX=0.75;entryY=0;entryDx=0;entryDy=0;endArrow=none;endFill=0;" parent="1" source="_ilCyXZ5-kIAI7I455lN-43" target="_ilCyXZ5-kIAI7I455lN-7" edge="1">
          <mxGeometry relative="1" as="geometry" />
        </mxCell>
        <mxCell id="_ilCyXZ5-kIAI7I455lN-43" value="Nota" style="ellipse;whiteSpace=wrap;html=1;align=center;fillColor=#fff2cc;strokeColor=#d6b656;" parent="1" vertex="1">
          <mxGeometry x="432.5" y="80" width="80" height="30" as="geometry" />
        </mxCell>
        <mxCell id="_ilCyXZ5-kIAI7I455lN-44" style="edgeStyle=orthogonalEdgeStyle;rounded=0;orthogonalLoop=1;jettySize=auto;html=1;entryX=0.133;entryY=0.003;entryDx=0;entryDy=0;entryPerimeter=0;endArrow=none;endFill=0;" parent="1" source="_ilCyXZ5-kIAI7I455lN-34" target="_ilCyXZ5-kIAI7I455lN-7" edge="1">
          <mxGeometry relative="1" as="geometry" />
        </mxCell>
        <mxCell id="_ilCyXZ5-kIAI7I455lN-48" value="ID" style="ellipse;whiteSpace=wrap;html=1;align=center;fontStyle=4;fillColor=#fff2cc;strokeColor=#d6b656;" parent="1" vertex="1">
          <mxGeometry x="590" y="80" width="80" height="30" as="geometry" />
        </mxCell>
        <mxCell id="_ilCyXZ5-kIAI7I455lN-53" style="edgeStyle=orthogonalEdgeStyle;rounded=0;orthogonalLoop=1;jettySize=auto;html=1;entryX=0.5;entryY=0;entryDx=0;entryDy=0;endArrow=none;endFill=0;" parent="1" source="_ilCyXZ5-kIAI7I455lN-49" target="_ilCyXZ5-kIAI7I455lN-4" edge="1">
          <mxGeometry relative="1" as="geometry" />
        </mxCell>
        <mxCell id="_ilCyXZ5-kIAI7I455lN-49" value="Nombre" style="ellipse;whiteSpace=wrap;html=1;align=center;fillColor=#fff2cc;strokeColor=#d6b656;" parent="1" vertex="1">
          <mxGeometry x="682.5" y="80" width="80" height="30" as="geometry" />
        </mxCell>
        <mxCell id="_ilCyXZ5-kIAI7I455lN-50" value="Descripción" style="ellipse;whiteSpace=wrap;html=1;align=center;fillColor=#fff2cc;strokeColor=#d6b656;" parent="1" vertex="1">
          <mxGeometry x="780" y="80" width="80" height="30" as="geometry" />
        </mxCell>
        <mxCell id="_ilCyXZ5-kIAI7I455lN-51" style="edgeStyle=orthogonalEdgeStyle;rounded=0;orthogonalLoop=1;jettySize=auto;html=1;entryX=0.114;entryY=0.043;entryDx=0;entryDy=0;entryPerimeter=0;endArrow=none;endFill=0;" parent="1" source="_ilCyXZ5-kIAI7I455lN-48" target="_ilCyXZ5-kIAI7I455lN-4" edge="1">
          <mxGeometry relative="1" as="geometry" />
        </mxCell>
        <mxCell id="_ilCyXZ5-kIAI7I455lN-55" style="edgeStyle=orthogonalEdgeStyle;rounded=0;orthogonalLoop=1;jettySize=auto;html=1;entryX=0.887;entryY=0.043;entryDx=0;entryDy=0;entryPerimeter=0;endArrow=none;endFill=0;" parent="1" source="_ilCyXZ5-kIAI7I455lN-50" target="_ilCyXZ5-kIAI7I455lN-4" edge="1">
          <mxGeometry relative="1" as="geometry">
            <Array as="points">
              <mxPoint x="775" y="95" />
              <mxPoint x="775" y="135" />
              <mxPoint x="764" y="135" />
            </Array>
          </mxGeometry>
        </mxCell>
        <mxCell id="_ilCyXZ5-kIAI7I455lN-80" style="edgeStyle=orthogonalEdgeStyle;rounded=0;orthogonalLoop=1;jettySize=auto;html=1;endArrow=none;endFill=0;" parent="1" source="_ilCyXZ5-kIAI7I455lN-56" target="_ilCyXZ5-kIAI7I455lN-9" edge="1">
          <mxGeometry relative="1" as="geometry" />
        </mxCell>
        <mxCell id="_ilCyXZ5-kIAI7I455lN-56" value="ID" style="ellipse;whiteSpace=wrap;html=1;align=center;fontStyle=4;fillColor=#fff2cc;strokeColor=#d6b656;" parent="1" vertex="1">
          <mxGeometry x="412.5" y="670" width="80" height="30" as="geometry" />
        </mxCell>
        <mxCell id="_ilCyXZ5-kIAI7I455lN-81" style="edgeStyle=orthogonalEdgeStyle;rounded=0;orthogonalLoop=1;jettySize=auto;html=1;entryX=1;entryY=0.75;entryDx=0;entryDy=0;endArrow=none;endFill=0;" parent="1" source="_ilCyXZ5-kIAI7I455lN-57" target="_ilCyXZ5-kIAI7I455lN-9" edge="1">
          <mxGeometry relative="1" as="geometry" />
        </mxCell>
        <mxCell id="_ilCyXZ5-kIAI7I455lN-57" value="Nombre" style="ellipse;whiteSpace=wrap;html=1;align=center;fillColor=#fff2cc;strokeColor=#d6b656;" parent="1" vertex="1">
          <mxGeometry x="512.5" y="670" width="80" height="30" as="geometry" />
        </mxCell>
        <mxCell id="_ilCyXZ5-kIAI7I455lN-79" style="edgeStyle=orthogonalEdgeStyle;rounded=0;orthogonalLoop=1;jettySize=auto;html=1;entryX=0;entryY=0.75;entryDx=0;entryDy=0;endArrow=none;endFill=0;" parent="1" source="_ilCyXZ5-kIAI7I455lN-58" target="_ilCyXZ5-kIAI7I455lN-9" edge="1">
          <mxGeometry relative="1" as="geometry" />
        </mxCell>
        <mxCell id="_ilCyXZ5-kIAI7I455lN-58" value="Descripción" style="ellipse;whiteSpace=wrap;html=1;align=center;fillColor=#fff2cc;strokeColor=#d6b656;" parent="1" vertex="1">
          <mxGeometry x="315" y="670" width="80" height="30" as="geometry" />
        </mxCell>
        <mxCell id="_ilCyXZ5-kIAI7I455lN-72" style="edgeStyle=orthogonalEdgeStyle;rounded=0;orthogonalLoop=1;jettySize=auto;html=1;entryX=0.415;entryY=-0.01;entryDx=0;entryDy=0;entryPerimeter=0;endArrow=none;endFill=0;" parent="1" source="_ilCyXZ5-kIAI7I455lN-12" target="_ilCyXZ5-kIAI7I455lN-6" edge="1">
          <mxGeometry relative="1" as="geometry" />
        </mxCell>
        <mxCell id="_ilCyXZ5-kIAI7I455lN-73" style="edgeStyle=orthogonalEdgeStyle;rounded=0;orthogonalLoop=1;jettySize=auto;html=1;entryX=0.561;entryY=0.088;entryDx=0;entryDy=0;entryPerimeter=0;endArrow=none;endFill=0;" parent="1" source="_ilCyXZ5-kIAI7I455lN-4" target="_ilCyXZ5-kIAI7I455lN-10" edge="1">
          <mxGeometry relative="1" as="geometry" />
        </mxCell>
        <mxCell id="_ilCyXZ5-kIAI7I455lN-82" style="edgeStyle=orthogonalEdgeStyle;rounded=0;orthogonalLoop=1;jettySize=auto;html=1;entryX=0.348;entryY=0.003;entryDx=0;entryDy=0;entryPerimeter=0;endArrow=none;endFill=0;" parent="1" source="_ilCyXZ5-kIAI7I455lN-18" target="_ilCyXZ5-kIAI7I455lN-5" edge="1">
          <mxGeometry relative="1" as="geometry" />
        </mxCell>
        <mxCell id="1Tt6Vb9NGM9969YENuCf-1" value="ID" style="ellipse;whiteSpace=wrap;html=1;align=center;fontStyle=4;fillColor=#fff2cc;strokeColor=#d6b656;" parent="1" vertex="1">
          <mxGeometry x="915" y="290" width="80" height="30" as="geometry" />
        </mxCell>
        <mxCell id="1Tt6Vb9NGM9969YENuCf-2" value="Nombre" style="ellipse;whiteSpace=wrap;html=1;align=center;fillColor=#fff2cc;strokeColor=#d6b656;" parent="1" vertex="1">
          <mxGeometry x="1005" y="290" width="80" height="30" as="geometry" />
        </mxCell>
        <mxCell id="1Tt6Vb9NGM9969YENuCf-3" value="Horario" style="ellipse;whiteSpace=wrap;html=1;align=center;fillColor=#fff2cc;strokeColor=#d6b656;" parent="1" vertex="1">
          <mxGeometry x="422.5" y="717" width="80" height="30" as="geometry" />
        </mxCell>
        <mxCell id="1Tt6Vb9NGM9969YENuCf-4" value="Horario" style="ellipse;whiteSpace=wrap;html=1;align=center;fillColor=#fff2cc;strokeColor=#d6b656;" parent="1" vertex="1">
          <mxGeometry x="935" y="230" width="80" height="30" as="geometry" />
        </mxCell>
        <mxCell id="1Tt6Vb9NGM9969YENuCf-37" style="edgeStyle=orthogonalEdgeStyle;rounded=0;orthogonalLoop=1;jettySize=auto;html=1;entryX=1;entryY=0.25;entryDx=0;entryDy=0;endArrow=none;endFill=0;" parent="1" source="1Tt6Vb9NGM9969YENuCf-5" target="_ilCyXZ5-kIAI7I455lN-3" edge="1">
          <mxGeometry relative="1" as="geometry" />
        </mxCell>
        <mxCell id="1Tt6Vb9NGM9969YENuCf-5" value="Especialidad" style="ellipse;whiteSpace=wrap;html=1;align=center;fillColor=#fff2cc;strokeColor=#d6b656;" parent="1" vertex="1">
          <mxGeometry x="1075" y="334" width="80" height="30" as="geometry" />
        </mxCell>
        <mxCell id="1Tt6Vb9NGM9969YENuCf-6" value="Teléfono" style="ellipse;whiteSpace=wrap;html=1;align=center;fillColor=#fff2cc;strokeColor=#d6b656;" parent="1" vertex="1">
          <mxGeometry x="1065" y="390" width="80" height="30" as="geometry" />
        </mxCell>
        <mxCell id="1Tt6Vb9NGM9969YENuCf-7" value="Email" style="ellipse;whiteSpace=wrap;html=1;align=center;fillColor=#fff2cc;strokeColor=#d6b656;" parent="1" vertex="1">
          <mxGeometry x="1065" y="440" width="80" height="30" as="geometry" />
        </mxCell>
        <mxCell id="1Tt6Vb9NGM9969YENuCf-8" value="ID" style="ellipse;whiteSpace=wrap;html=1;align=center;fontStyle=4;fillColor=#fff2cc;strokeColor=#d6b656;" parent="1" vertex="1">
          <mxGeometry x="625" y="670" width="80" height="30" as="geometry" />
        </mxCell>
        <mxCell id="1Tt6Vb9NGM9969YENuCf-17" style="edgeStyle=orthogonalEdgeStyle;rounded=0;orthogonalLoop=1;jettySize=auto;html=1;entryX=1;entryY=0.25;entryDx=0;entryDy=0;endArrow=none;endFill=0;" parent="1" source="1Tt6Vb9NGM9969YENuCf-10" target="_ilCyXZ5-kIAI7I455lN-6" edge="1">
          <mxGeometry relative="1" as="geometry" />
        </mxCell>
        <mxCell id="1Tt6Vb9NGM9969YENuCf-10" value="Día Semana" style="ellipse;whiteSpace=wrap;html=1;align=center;fillColor=#fff2cc;strokeColor=#d6b656;" parent="1" vertex="1">
          <mxGeometry x="765" y="580" width="80" height="30" as="geometry" />
        </mxCell>
        <mxCell id="1Tt6Vb9NGM9969YENuCf-11" value="Hora Inicio" style="ellipse;whiteSpace=wrap;html=1;align=center;fillColor=#fff2cc;strokeColor=#d6b656;" parent="1" vertex="1">
          <mxGeometry x="745" y="660" width="80" height="30" as="geometry" />
        </mxCell>
        <mxCell id="1Tt6Vb9NGM9969YENuCf-18" style="edgeStyle=orthogonalEdgeStyle;rounded=0;orthogonalLoop=1;jettySize=auto;html=1;endArrow=none;endFill=0;" parent="1" source="1Tt6Vb9NGM9969YENuCf-13" target="_ilCyXZ5-kIAI7I455lN-6" edge="1">
          <mxGeometry relative="1" as="geometry" />
        </mxCell>
        <mxCell id="1Tt6Vb9NGM9969YENuCf-13" value="Hora Fin" style="ellipse;whiteSpace=wrap;html=1;align=center;fillColor=#fff2cc;strokeColor=#d6b656;" parent="1" vertex="1">
          <mxGeometry x="777.5" y="620" width="80" height="30" as="geometry" />
        </mxCell>
        <mxCell id="1Tt6Vb9NGM9969YENuCf-14" value="ID" style="ellipse;whiteSpace=wrap;html=1;align=center;fontStyle=4;fillColor=#fff2cc;strokeColor=#d6b656;" parent="1" vertex="1">
          <mxGeometry x="985" y="695" width="80" height="30" as="geometry" />
        </mxCell>
        <mxCell id="1Tt6Vb9NGM9969YENuCf-16" style="edgeStyle=orthogonalEdgeStyle;rounded=0;orthogonalLoop=1;jettySize=auto;html=1;entryX=0.618;entryY=0.02;entryDx=0;entryDy=0;entryPerimeter=0;endArrow=none;endFill=0;" parent="1" source="_ilCyXZ5-kIAI7I455lN-6" target="1Tt6Vb9NGM9969YENuCf-8" edge="1">
          <mxGeometry relative="1" as="geometry" />
        </mxCell>
        <mxCell id="1Tt6Vb9NGM9969YENuCf-19" style="edgeStyle=orthogonalEdgeStyle;rounded=0;orthogonalLoop=1;jettySize=auto;html=1;entryX=0.895;entryY=1.017;entryDx=0;entryDy=0;entryPerimeter=0;endArrow=none;endFill=0;" parent="1" source="1Tt6Vb9NGM9969YENuCf-11" target="_ilCyXZ5-kIAI7I455lN-6" edge="1">
          <mxGeometry relative="1" as="geometry" />
        </mxCell>
        <mxCell id="1Tt6Vb9NGM9969YENuCf-36" style="edgeStyle=orthogonalEdgeStyle;rounded=0;orthogonalLoop=1;jettySize=auto;html=1;entryX=0.825;entryY=-0.043;entryDx=0;entryDy=0;entryPerimeter=0;endArrow=none;endFill=0;" parent="1" source="1Tt6Vb9NGM9969YENuCf-2" target="_ilCyXZ5-kIAI7I455lN-3" edge="1">
          <mxGeometry relative="1" as="geometry" />
        </mxCell>
        <mxCell id="1Tt6Vb9NGM9969YENuCf-38" style="edgeStyle=orthogonalEdgeStyle;rounded=0;orthogonalLoop=1;jettySize=auto;html=1;entryX=0.832;entryY=1.077;entryDx=0;entryDy=0;entryPerimeter=0;endArrow=none;endFill=0;" parent="1" source="1Tt6Vb9NGM9969YENuCf-7" target="_ilCyXZ5-kIAI7I455lN-3" edge="1">
          <mxGeometry relative="1" as="geometry" />
        </mxCell>
      </root>
    </mxGraphModel>
  </diagram>
</mxfile>
